REM DIRINDEX 1\2\4,1\2\5,1\2\6,1\3\7,1\3\8,1\3\9,1\3\10
REM DIRNAME cjc057,folder01,folder02,folder03,folder04,folder05,folder06,folder07,folder08,folder09
TITLE ""
FILE "b_075.mp3" MP3
  TRACK 01 AUDIO
    TITLE "0:"
    INDEX 01 00:00:00
  TRACK 02 AUDIO
    TITLE "7:cjc057_06212"
    INDEX 01 00:00:11
  TRACK 03 AUDIO
    TITLE "0:"
    INDEX 01 00:01:32
  TRACK 04 AUDIO
    TITLE "8:cjc057_06213"
    INDEX 01 00:01:68
  TRACK 05 AUDIO
    TITLE "0:"
    INDEX 01 00:04:38
  TRACK 06 AUDIO
    TITLE "9:cjc057_06214"
    INDEX 01 00:05:10
  TRACK 07 AUDIO
    TITLE "0:"
    INDEX 01 00:08:48
  TRACK 08 AUDIO
    TITLE "7:cjc057_06215"
    INDEX 01 00:09:59
  TRACK 09 AUDIO
    TITLE "0:"
    INDEX 01 00:10:72
  TRACK 10 AUDIO
    TITLE "8:cjc057_06216"
    INDEX 01 00:11:29
  TRACK 11 AUDIO
    TITLE "0:"
    INDEX 01 00:12:48
  TRACK 12 AUDIO
    TITLE "9:cjc057_06217"
    INDEX 01 00:13:20
  TRACK 13 AUDIO
    TITLE "0:"
    INDEX 01 00:16:53
  TRACK 14 AUDIO
    TITLE "7:cjc057_06218"
    INDEX 01 00:17:65
  TRACK 15 AUDIO
    TITLE "0:"
    INDEX 01 00:19:09
  TRACK 16 AUDIO
    TITLE "8:cjc057_06219"
    INDEX 01 00:19:44
  TRACK 17 AUDIO
    TITLE "0:"
    INDEX 01 00:21:15
  TRACK 18 AUDIO
    TITLE "9:cjc057_06220"
    INDEX 01 00:21:62
  TRACK 19 AUDIO
    TITLE "0:"
    INDEX 01 00:25:56
  TRACK 20 AUDIO
    TITLE "7:cjc057_06221"
    INDEX 01 00:26:67
  TRACK 21 AUDIO
    TITLE "0:"
    INDEX 01 00:28:13
  TRACK 22 AUDIO
    TITLE "8:cjc057_06222"
    INDEX 01 00:28:49
  TRACK 23 AUDIO
    TITLE "0:"
    INDEX 01 00:30:01
  TRACK 24 AUDIO
    TITLE "9:cjc057_06223"
    INDEX 01 00:30:44
  TRACK 25 AUDIO
    TITLE "0:"
    INDEX 01 00:34:38
  TRACK 26 AUDIO
    TITLE "7:cjc057_06224"
    INDEX 01 00:35:47
  TRACK 27 AUDIO
    TITLE "0:"
    INDEX 01 00:36:62
  TRACK 28 AUDIO
    TITLE "8:cjc057_06225"
    INDEX 01 00:37:22
  TRACK 29 AUDIO
    TITLE "0:"
    INDEX 01 00:38:35
  TRACK 30 AUDIO
    TITLE "9:cjc057_06226"
    INDEX 01 00:39:07
  TRACK 31 AUDIO
    TITLE "0:"
    INDEX 01 00:43:29
  TRACK 32 AUDIO
    TITLE "7:cjc057_06227"
    INDEX 01 00:44:38
  TRACK 33 AUDIO
    TITLE "0:"
    INDEX 01 00:45:37
  TRACK 34 AUDIO
    TITLE "8:cjc057_06228"
    INDEX 01 00:45:73
  TRACK 35 AUDIO
    TITLE "0:"
    INDEX 01 00:47:25
  TRACK 36 AUDIO
    TITLE "9:cjc057_06229"
    INDEX 01 00:47:72
  TRACK 37 AUDIO
    TITLE "0:"
    INDEX 01 00:51:36
  TRACK 38 AUDIO
    TITLE "7:cjc057_06230"
    INDEX 01 00:52:47
  TRACK 39 AUDIO
    TITLE "0:"
    INDEX 01 00:53:72
  TRACK 40 AUDIO
    TITLE "8:cjc057_06231"
    INDEX 01 00:54:32
  TRACK 41 AUDIO
    TITLE "0:"
    INDEX 01 00:55:59
  TRACK 42 AUDIO
    TITLE "9:cjc057_06232"
    INDEX 01 00:56:31
  TRACK 43 AUDIO
    TITLE "0:"
    INDEX 01 01:00:08
  TRACK 44 AUDIO
    TITLE "7:cjc057_06233"
    INDEX 01 01:01:19
  TRACK 45 AUDIO
    TITLE "0:"
    INDEX 01 01:02:34
  TRACK 46 AUDIO
    TITLE "8:cjc057_06234"
    INDEX 01 01:02:69
  TRACK 47 AUDIO
    TITLE "0:"
    INDEX 01 01:04:19
  TRACK 48 AUDIO
    TITLE "9:cjc057_06235"
    INDEX 01 01:04:66
  TRACK 49 AUDIO
    TITLE "0:"
    INDEX 01 01:08:44
  TRACK 50 AUDIO
    TITLE "7:cjc057_06236"
    INDEX 01 01:09:54
  TRACK 51 AUDIO
    TITLE "0:"
    INDEX 01 01:10:73
  TRACK 52 AUDIO
    TITLE "8:cjc057_06237"
    INDEX 01 01:11:33
  TRACK 53 AUDIO
    TITLE "0:"
    INDEX 01 01:12:56
  TRACK 54 AUDIO
    TITLE "9:cjc057_06238"
    INDEX 01 01:13:26
  TRACK 55 AUDIO
    TITLE "0:"
    INDEX 01 01:16:63
  TRACK 56 AUDIO
    TITLE "7:cjc057_06239"
    INDEX 01 01:18:00
  TRACK 57 AUDIO
    TITLE "0:"
    INDEX 01 01:19:15
  TRACK 58 AUDIO
    TITLE "8:cjc057_06240"
    INDEX 01 01:19:46
  TRACK 59 AUDIO
    TITLE "0:"
    INDEX 01 01:20:73
  TRACK 60 AUDIO
    TITLE "9:cjc057_06241"
    INDEX 01 01:21:47
  TRACK 61 AUDIO
    TITLE "0:"
    INDEX 01 01:25:27
  TRACK 62 AUDIO
    TITLE "7:cjc057_06242"
    INDEX 01 01:26:36
  TRACK 63 AUDIO
    TITLE "0:"
    INDEX 01 01:27:46
  TRACK 64 AUDIO
    TITLE "8:cjc057_06243"
    INDEX 01 01:28:06
  TRACK 65 AUDIO
    TITLE "0:"
    INDEX 01 01:30:38
  TRACK 66 AUDIO
    TITLE "9:cjc057_06244"
    INDEX 01 01:31:04
  TRACK 67 AUDIO
    TITLE "0:"
    INDEX 01 01:34:46
  TRACK 68 AUDIO
    TITLE "7:cjc057_06245"
    INDEX 01 01:35:57
  TRACK 69 AUDIO
    TITLE "0:"
    INDEX 01 01:36:66
  TRACK 70 AUDIO
    TITLE "8:cjc057_06246"
    INDEX 01 01:37:26
  TRACK 71 AUDIO
    TITLE "0:"
    INDEX 01 01:38:38
  TRACK 72 AUDIO
    TITLE "9:cjc057_06247"
    INDEX 01 01:39:08
  TRACK 73 AUDIO
    TITLE "0:"
    INDEX 01 01:43:39
  TRACK 74 AUDIO
    TITLE "7:cjc057_06248"
    INDEX 01 01:44:48
  TRACK 75 AUDIO
    TITLE "0:"
    INDEX 01 01:45:65
  TRACK 76 AUDIO
    TITLE "8:cjc057_06249"
    INDEX 01 01:46:25
  TRACK 77 AUDIO
    TITLE "0:"
    INDEX 01 01:47:46
  TRACK 78 AUDIO
    TITLE "9:cjc057_06250"
    INDEX 01 01:48:16
  TRACK 79 AUDIO
    TITLE "0:"
    INDEX 01 01:51:48
  TRACK 80 AUDIO
    TITLE "7:cjc057_06251"
    INDEX 01 01:52:57
  TRACK 81 AUDIO
    TITLE "0:"
    INDEX 01 01:53:74
  TRACK 82 AUDIO
    TITLE "8:cjc057_06252"
    INDEX 01 01:54:35
  TRACK 83 AUDIO
    TITLE "0:"
    INDEX 01 01:55:71
  TRACK 84 AUDIO
    TITLE "9:cjc057_06253"
    INDEX 01 01:56:43
  TRACK 85 AUDIO
    TITLE "0:"
    INDEX 01 01:59:50
  TRACK 86 AUDIO
    TITLE "7:cjc057_06254"
    INDEX 01 02:00:59
  TRACK 87 AUDIO
    TITLE "0:"
    INDEX 01 02:02:05
  TRACK 88 AUDIO
    TITLE "8:cjc057_06255"
    INDEX 01 02:02:38
  TRACK 89 AUDIO
    TITLE "0:"
    INDEX 01 02:05:15
  TRACK 90 AUDIO
    TITLE "9:cjc057_06256"
    INDEX 01 02:05:62
  TRACK 91 AUDIO
    TITLE "0:"
    INDEX 01 02:09:38
